<?xml version="1.0" encoding="UTF-8"?>
<svg xmlns="http://www.w3.org/2000/svg" version="1.1" viewBox="0 0 32 32">
  <defs>
    <style>
      .cls-1, .cls-2, .cls-3 {
      fill: #1d1d1b;
      }

      .cls-1, .cls-4 {
      stroke: #fff;
      }

      .cls-3 {
      stroke: #1d1d1b;
      stroke-width: .8px;
      }

      .cls-5 {
      opacity: .5;
      }

      .cls-4 {
      fill: none;
      }
    </style>
  </defs>
  <!-- Generator: Adobe Illustrator 28.7.0, SVG Export Plug-In . SVG Version: 1.2.0 Build 136)  -->
  <g>
    <g id="v2">
      <rect class="cls-2" width="32" height="32"/>
      <g class="cls-5">
        <polyline class="cls-4" points="3.7 16.9 9.9 19.4 16 16.9"/>
        <line class="cls-4" x1="9.9" y1="19.4" x2="9.9" y2="26.7"/>
        <polygon class="cls-4" points="16 24.3 22.1 26.7 28.3 24.3 28.3 16.9 22.1 14.4 16 16.9 9.9 14.4 3.7 16.9 3.7 24.3 9.9 26.7 16 24.3"/>
        <polyline class="cls-4" points="16 16.9 22.1 19.4 28.3 16.9"/>
        <line class="cls-4" x1="22.1" y1="19.4" x2="22.1" y2="26.7"/>
        <polygon class="cls-4" points="9.9 7.1 16 4.6 22.1 7.1 22.1 14.4 16 16.9 9.9 14.4 9.9 7.1"/>
        <polyline class="cls-4" points="9.9 7.1 16 9.5 22.1 7.1"/>
      </g>
      <polygon class="cls-3" points="18.5 9.7 11.3 12.5 11.3 21.3 18.5 24.1 25.6 21.3 25.6 12.5 18.5 9.7"/>
      <polygon class="cls-1" points="12.3 13.2 18.5 10.8 24.6 13.2 24.6 20.6 18.5 23 12.3 20.6 12.3 13.2"/>
      <polyline class="cls-1" points="12.3 13.2 18.5 15.7 24.6 13.2"/>
      <line class="cls-4" x1="18.5" y1="15.7" x2="18.5" y2="23"/>
    </g>
  </g>
</svg>
